<?xml version="1.0" encoding="utf-8"?>
<!-- Generator: Adobe Illustrator 21.0.0, SVG Export Plug-In . SVG Version: 6.00 Build 0)  -->
<svg version="1.1" xmlns="http://www.w3.org/2000/svg" xmlns:xlink="http://www.w3.org/1999/xlink" x="0px" y="0px"
	 viewBox="0 0 500 500" style="enable-background:new 0 0 500 500;" xml:space="preserve">
<style type="text/css">
	.st0{fill:#1A38B7;}
	.st1{fill:url(#SVGID_1_);}
	.st2{fill:#D3004C;}
	.st3{fill:#1852A8;}
	.st4{fill:url(#SVGID_2_);}
	.st5{fill:url(#SVGID_3_);}
	.st6{fill:#2D2D2D;}
</style>
<g id="BACKGROUND">
</g>
<g id="OBJECTS">
	<g>
		<path class="st0" d="M164,308.7L164,308.7c-7.4-3.7-10.3-12.8-6.6-20.2l77.2-152.2c3.7-7.2,11.1-11.7,19.2-11.5
			c7.8,0.2,14.9,4.9,18.4,11.9l48.9,97.3c3.3,6.5,3,14.1-0.8,20.4c-3.9,6.4-11,10.1-18.5,10.1h-49c-8.3,0-15-6.7-15-15l0,0
			c0-8.3,6.7-15,15-15h34.9l-34.5-68.8l-69.2,136.4C180.4,309.5,171.4,312.5,164,308.7z"/>
	</g>
	<g>
		<linearGradient id="SVGID_1_" gradientUnits="userSpaceOnUse" x1="302.4665" y1="149.8306" x2="201.3068" y2="330.0788">
			<stop  offset="0" style="stop-color:#0071BC"/>
			<stop  offset="1" style="stop-color:#FFFFFF;stop-opacity:4.000000e-02"/>
		</linearGradient>
		<path class="st1" d="M163.3,308.7L163.3,308.7c-7.4-3.7-10.3-12.8-6.6-20.2l77.2-152.2c3.7-7.2,11.1-11.7,19.2-11.5
			c7.8,0.2,14.9,4.9,18.4,11.9l48.9,97.3c3.3,6.5,3,14.1-0.8,20.4c-3.9,6.4-11,10.1-18.5,10.1h-49c-8.3,0-15-6.7-15-15l0,0
			c0-8.3,6.7-15,15-15h34.9l-34.5-68.8l-69.2,136.4C179.7,309.5,170.7,312.5,163.3,308.7z"/>
	</g>
	<g>
		<path class="st2" d="M329.2,310.4H227.9c-8.3,0-15-6.7-15-15c0-8.3,6.7-15,15-15h101.3c8.3,0,15,6.7,15,15
			C344.2,303.6,337.5,310.4,329.2,310.4z"/>
	</g>
	<path class="st3" d="M320.5,254.5c3.8-6.3,4.1-13.9,0.8-20.4l-48.9-97.3c-3.6-7-10.6-11.7-18.4-11.9c-8.2-0.2-15.6,4.2-19.2,11.5
		l-14.1,27.7h0c22.2-21.9,32.8,1.7,32.8,1.7l34.5,68.8H253c-8.3,0-15,6.7-15,15c0,8.3,6.7,15,15,15h49
		C309.5,264.6,316.6,260.9,320.5,254.5z"/>
	<linearGradient id="SVGID_2_" gradientUnits="userSpaceOnUse" x1="292.5508" y1="245.0643" x2="260.3008" y2="250.0643">
		<stop  offset="0" style="stop-color:#000000"/>
		<stop  offset="1" style="stop-color:#000000;stop-opacity:0"/>
	</linearGradient>
	<path class="st4" d="M287.9,234.6H253c-8.3,0-15,6.7-15,15c0,8.3,6.7,15,15,15h21.3C303.8,260.7,287.9,234.6,287.9,234.6z"/>
	<linearGradient id="SVGID_3_" gradientUnits="userSpaceOnUse" x1="227.8178" y1="295.3644" x2="344.2086" y2="295.3644">
		<stop  offset="0" style="stop-color:#000000"/>
		<stop  offset="1" style="stop-color:#000000;stop-opacity:0"/>
	</linearGradient>
	<path class="st5" d="M344.2,295.4c0-8.3-6.7-15-15-15H227.9c0,0-4.3,30,62.3,30h39C337.5,310.4,344.2,303.6,344.2,295.4z"/>
	<g>
		<path class="st6" d="M130.2,350.1v-17.8c0-0.4,0.4-0.6,1.1-0.6h0.2c0.7,0,1.1,0.2,1.1,0.6v7.6h9.8v-7.6c0-0.4,0.4-0.6,1.1-0.6h0.2
			c0.7,0,1.1,0.2,1.1,0.6v17.8c0,0.4-0.4,0.6-1.1,0.6h-0.2c-0.7,0-1.1-0.2-1.1-0.6v-8.1h-9.8v8.1c0,0.4-0.4,0.6-1.1,0.6h-0.2
			C130.5,350.7,130.2,350.5,130.2,350.1z"/>
		<path class="st6" d="M151,348.3c-1.4-1.6-2.1-4-2.1-7.2c0-3.1,0.7-5.5,2.1-7.1c1.4-1.6,3.5-2.4,6.2-2.4c2.7,0,4.8,0.8,6.2,2.4
			s2.1,4,2.1,7.1c0,3.1-0.7,5.5-2.1,7.2s-3.5,2.5-6.2,2.5C154.4,350.8,152.4,349.9,151,348.3z M161.5,346.8c1-1.3,1.5-3.2,1.5-5.7
			c0-2.5-0.5-4.3-1.5-5.6c-1-1.3-2.5-1.9-4.4-1.9c-1.9,0-3.4,0.6-4.4,1.9c-1,1.3-1.5,3.1-1.5,5.6c0,2.5,0.5,4.4,1.5,5.7
			s2.4,1.9,4.4,1.9C159,348.7,160.5,348.1,161.5,346.8z"/>
		<path class="st6" d="M172.7,350.1v-16.3h-5.2c-0.2,0-0.3-0.1-0.4-0.2c-0.1-0.1-0.1-0.3-0.1-0.6v-0.4c0-0.3,0-0.5,0.1-0.6
			s0.2-0.2,0.4-0.2h12.6c0.2,0,0.3,0.1,0.4,0.2s0.1,0.3,0.1,0.6v0.4c0,0.3,0,0.5-0.1,0.6c-0.1,0.1-0.2,0.2-0.4,0.2h-5.1v16.3
			c0,0.4-0.4,0.6-1.1,0.6h-0.2C173.1,350.7,172.7,350.5,172.7,350.1z"/>
		<path class="st6" d="M184.1,350.4c-0.1-0.1-0.2-0.3-0.2-0.6v-17.3c0-0.3,0.1-0.5,0.2-0.6c0.1-0.1,0.3-0.2,0.6-0.2h9.4
			c0.2,0,0.3,0.1,0.4,0.2s0.1,0.3,0.1,0.6v0.4c0,0.3,0,0.5-0.1,0.6c-0.1,0.1-0.2,0.2-0.4,0.2h-7.8v6.1h7c0.2,0,0.3,0.1,0.4,0.2
			c0.1,0.1,0.1,0.3,0.1,0.6v0.4c0,0.3,0,0.5-0.1,0.6c-0.1,0.1-0.2,0.2-0.4,0.2h-7v6.6h7.9c0.2,0,0.3,0.1,0.4,0.2
			c0.1,0.1,0.1,0.3,0.1,0.6v0.4c0,0.3,0,0.5-0.1,0.6c-0.1,0.1-0.2,0.2-0.4,0.2h-9.4C184.4,350.6,184.2,350.5,184.1,350.4z"/>
		<path class="st6" d="M198.8,350.4c-0.1-0.1-0.2-0.3-0.2-0.6v-17.5c0-0.4,0.4-0.6,1.1-0.6h0.2c0.7,0,1.1,0.2,1.1,0.6v16.3h7.4
			c0.2,0,0.3,0.1,0.4,0.2c0.1,0.1,0.1,0.3,0.1,0.6v0.4c0,0.3,0,0.5-0.1,0.6c-0.1,0.1-0.2,0.2-0.4,0.2h-9
			C199.1,350.6,198.9,350.5,198.8,350.4z"/>
		<path class="st6" d="M218.3,350.4c-0.1-0.1-0.2-0.3-0.2-0.6v-17.5c0-0.4,0.4-0.6,1.1-0.6h0.2c0.7,0,1.1,0.2,1.1,0.6v16.3h7.4
			c0.2,0,0.3,0.1,0.4,0.2c0.1,0.1,0.1,0.3,0.1,0.6v0.4c0,0.3,0,0.5-0.1,0.6s-0.2,0.2-0.4,0.2h-9
			C218.6,350.6,218.4,350.5,218.3,350.4z"/>
		<path class="st6" d="M231.7,348.3c-1.4-1.6-2.1-4-2.1-7.2c0-3.1,0.7-5.5,2.1-7.1c1.4-1.6,3.5-2.4,6.2-2.4s4.8,0.8,6.2,2.4
			c1.4,1.6,2.1,4,2.1,7.1c0,3.1-0.7,5.5-2.1,7.2c-1.4,1.6-3.5,2.5-6.2,2.5C235.1,350.8,233.1,349.9,231.7,348.3z M242.2,346.8
			c1-1.3,1.5-3.2,1.5-5.7c0-2.5-0.5-4.3-1.5-5.6c-1-1.3-2.5-1.9-4.4-1.9s-3.4,0.6-4.4,1.9c-1,1.3-1.5,3.1-1.5,5.6
			c0,2.5,0.5,4.4,1.5,5.7c1,1.3,2.4,1.9,4.4,1.9S241.2,348.1,242.2,346.8z"/>
		<path class="st6" d="M250.3,350.1v-17.5c0-0.3,0.1-0.5,0.2-0.6s0.3-0.2,0.6-0.2h4.5c2.2,0,3.8,0.4,4.9,1.1c1.1,0.8,1.6,2,1.6,3.6
			c0,1.1-0.3,2.1-0.8,2.8s-1.3,1.3-2.3,1.7v0.1c0.5,0.2,1,0.5,1.3,1.1c0.4,0.5,0.7,1.3,1.1,2.3l2.1,5.3c0.1,0.2,0.1,0.3,0.1,0.4
			c0,0.3-0.4,0.4-1.1,0.4h-0.3c-0.3,0-0.5,0-0.7-0.1c-0.2-0.1-0.3-0.2-0.4-0.3l-2-5.3c-0.4-1-0.9-1.7-1.5-2.1
			c-0.6-0.4-1.4-0.6-2.5-0.6h-2.4v7.8c0,0.4-0.4,0.6-1.1,0.6h-0.2C250.7,350.7,250.3,350.5,250.3,350.1z M256.3,340.2
			c0.6,0,1.2-0.2,1.7-0.5c0.5-0.3,0.9-0.7,1.3-1.2s0.5-1.1,0.5-1.6c0-1.1-0.3-1.9-1-2.4c-0.6-0.5-1.5-0.8-2.7-0.8h-3.4v6.5H256.3z"
			/>
		<path class="st6" d="M267,350.4c-0.1-0.1-0.2-0.3-0.2-0.6v-17.3c0-0.3,0.1-0.5,0.2-0.6c0.1-0.1,0.3-0.2,0.6-0.2h9.4
			c0.2,0,0.3,0.1,0.4,0.2s0.1,0.3,0.1,0.6v0.4c0,0.3,0,0.5-0.1,0.6c-0.1,0.1-0.2,0.2-0.4,0.2h-7.8v6.1h7c0.2,0,0.3,0.1,0.4,0.2
			c0.1,0.1,0.1,0.3,0.1,0.6v0.4c0,0.3,0,0.5-0.1,0.6s-0.2,0.2-0.4,0.2h-7v6.6h7.9c0.2,0,0.3,0.1,0.4,0.2c0.1,0.1,0.1,0.3,0.1,0.6
			v0.4c0,0.3,0,0.5-0.1,0.6c-0.1,0.1-0.2,0.2-0.4,0.2h-9.4C267.3,350.6,267.1,350.5,267,350.4z"/>
		<path class="st6" d="M289.1,345l-4.8-8.4c-0.2-0.3-0.4-0.7-0.6-1.2l-0.1,0c0,0.3,0.1,0.8,0.1,1.5v13.1c0,0.4-0.4,0.6-1.1,0.6h-0.2
			c-0.7,0-1.1-0.2-1.1-0.6v-17.8c0-0.4,0.4-0.6,1.1-0.6h1c0.6,0,1,0.2,1.1,0.5l5.1,8.8c0.3,0.6,0.6,1.1,0.7,1.7
			c0.1-0.4,0.4-1,0.8-1.8l5-8.8c0.2-0.3,0.6-0.5,1.1-0.5h0.9c0.7,0,1.1,0.2,1.1,0.6v17.8c0,0.4-0.4,0.6-1.1,0.6h-0.2
			c-0.7,0-1.1-0.2-1.1-0.6v-13c0-0.7,0-1.2,0.1-1.5l-0.1,0c-0.3,0.5-0.5,0.9-0.6,1.2l-4.7,8.2c-0.1,0.2-0.3,0.4-0.6,0.4h-1.1
			C289.5,345.3,289.3,345.2,289.1,345z"/>
		<path class="st6" d="M310.7,350.1v-17.8c0-0.4,0.4-0.6,1.1-0.6h0.2c0.7,0,1.1,0.2,1.1,0.6v17.8c0,0.4-0.4,0.6-1.1,0.6h-0.2
			C311,350.7,310.7,350.5,310.7,350.1z"/>
		<path class="st6" d="M318,350.1v-17.5c0-0.3,0.1-0.5,0.2-0.6c0.1-0.1,0.3-0.2,0.6-0.2h5.5c1.6,0,3,0.4,4.2,1.1
			c1.2,0.8,1.8,2.1,1.8,4.2c0,1.5-0.4,2.7-1.1,3.5c-0.7,0.8-1.5,1.4-2.3,1.7c-0.9,0.3-1.6,0.4-2.3,0.4h-4.2v7.5
			c0,0.4-0.4,0.6-1.1,0.6h-0.2C318.3,350.7,318,350.5,318,350.1z M324.6,340.5c0.8,0,1.5-0.3,2.2-0.8s1.1-1.4,1.1-2.7
			c0-1.2-0.4-2-1.1-2.5c-0.7-0.5-1.6-0.7-2.6-0.7h-3.8v6.7H324.6z"/>
		<path class="st6" d="M334.7,350.4c-0.9-0.3-1.6-0.6-2.1-0.9c-0.3-0.3-0.5-0.5-0.5-0.7c0-0.2,0.1-0.5,0.4-0.9
			c0.2-0.4,0.4-0.6,0.6-0.6c0.1,0,0.3,0.1,0.6,0.3c0.6,0.3,1.2,0.6,1.8,0.8s1.4,0.3,2.3,0.3c1,0,1.9-0.3,2.5-0.9
			c0.7-0.6,1-1.4,1-2.3c0-0.7-0.2-1.2-0.5-1.7s-0.8-0.8-1.3-1.1c-0.5-0.3-1.3-0.6-2.2-1c-1-0.4-1.9-0.8-2.5-1.1
			c-0.6-0.3-1.1-0.8-1.6-1.5c-0.4-0.7-0.6-1.6-0.6-2.7c0-1,0.2-1.8,0.7-2.6s1.2-1.3,2.1-1.8c0.9-0.4,2-0.6,3.1-0.6
			c0.6,0,1.3,0.1,2,0.3c0.8,0.2,1.3,0.4,1.8,0.7c0.4,0.2,0.5,0.4,0.5,0.7c0,0.2-0.1,0.5-0.3,0.9c-0.2,0.4-0.4,0.6-0.5,0.6
			c-0.1,0-0.2,0-0.4-0.1c-0.2-0.1-0.3-0.2-0.3-0.2c-0.9-0.5-1.8-0.7-2.8-0.7c-1,0-1.9,0.3-2.5,0.8c-0.6,0.5-1,1.3-1,2.2
			c0,0.6,0.2,1.1,0.5,1.5c0.3,0.4,0.7,0.7,1.1,0.8c0.4,0.2,1.1,0.5,2.1,0.9c1.1,0.4,2,0.8,2.6,1.2c0.7,0.4,1.3,0.9,1.7,1.7
			c0.5,0.7,0.7,1.7,0.7,2.8c0,1.6-0.5,2.9-1.6,3.8s-2.5,1.4-4.4,1.4C336.6,350.8,335.6,350.6,334.7,350.4z"/>
		<path class="st6" d="M348.2,348.3c-1.4-1.6-2.1-4-2.1-7.2c0-3.1,0.7-5.5,2.1-7.1c1.4-1.6,3.5-2.4,6.2-2.4s4.8,0.8,6.2,2.4
			c1.4,1.6,2.1,4,2.1,7.1c0,3.1-0.7,5.5-2.1,7.2c-1.4,1.6-3.5,2.5-6.2,2.5C351.7,350.8,349.6,349.9,348.2,348.3z M358.8,346.8
			c1-1.3,1.5-3.2,1.5-5.7c0-2.5-0.5-4.3-1.5-5.6c-1-1.3-2.5-1.9-4.4-1.9s-3.4,0.6-4.4,1.9c-1,1.3-1.5,3.1-1.5,5.6
			c0,2.5,0.5,4.4,1.5,5.7c1,1.3,2.4,1.9,4.4,1.9S357.7,348.1,358.8,346.8z"/>
		<path class="st6" d="M366.7,350.1v-17.8c0-0.4,0.4-0.6,1.1-0.6h0.6c0.3,0,0.5,0,0.7,0.1c0.2,0.1,0.3,0.2,0.4,0.4l8.5,12.8
			c0.3,0.5,0.6,1,0.9,1.6l0.1,0c0-0.4-0.1-1-0.1-1.8v-12.5c0-0.4,0.4-0.6,1.1-0.6h0.2c0.7,0,1.1,0.2,1.1,0.6v17.8
			c0,0.4-0.4,0.6-1.1,0.6h-0.5c-0.5,0-0.8-0.1-0.9-0.4l-8.7-13.1c-0.3-0.4-0.6-1-0.9-1.6l-0.1,0c0,0.4,0.1,1,0.1,1.8v12.6
			c0,0.4-0.4,0.6-1.1,0.6h-0.2C367,350.7,366.7,350.5,366.7,350.1z"/>
	</g>
	<g>
		<path class="st6" d="M176.7,370.6c-0.4-0.4-0.7-1-0.7-1.8v-5.3c0-0.2,0.2-0.3,0.6-0.3h0.1c0.4,0,0.6,0.1,0.6,0.3v5.2
			c0,0.5,0.1,0.8,0.4,1.1c0.3,0.3,0.7,0.4,1.1,0.4c0.3,0,0.7-0.1,1-0.3c0.3-0.2,0.6-0.5,0.9-0.8v-5.6c0-0.2,0.2-0.3,0.6-0.3h0.1
			c0.4,0,0.6,0.1,0.6,0.3v5.4c0,0.7,0,1.1,0.1,1.4c0.1,0.3,0.1,0.4,0.1,0.5c0,0.1-0.1,0.2-0.3,0.3c-0.2,0.1-0.4,0.1-0.5,0.1
			c-0.1,0-0.2-0.1-0.3-0.2c-0.1-0.2-0.1-0.3-0.2-0.5c0-0.2-0.1-0.3-0.1-0.3c-0.3,0.4-0.7,0.6-1.1,0.8s-0.8,0.3-1.3,0.3
			C177.7,371.2,177.1,371,176.7,370.6z"/>
		<path class="st6" d="M194.4,363.6c0.5,0.4,0.7,1,0.7,1.9v5.3c0,0.2-0.2,0.3-0.6,0.3h-0.1c-0.4,0-0.6-0.1-0.6-0.3v-5.2
			c0-0.5-0.1-0.8-0.4-1.1s-0.6-0.4-1.1-0.4c-0.6,0-1.3,0.4-1.9,1.1c0,0.1,0,0.2,0,0.3v5.3c0,0.2-0.2,0.3-0.6,0.3h-0.1
			c-0.4,0-0.6-0.1-0.6-0.3v-5.2c0-0.5-0.1-0.8-0.4-1.1s-0.6-0.4-1.1-0.4c-0.4,0-0.7,0.1-1,0.3c-0.3,0.2-0.6,0.5-0.8,0.7v5.6
			c0,0.2-0.2,0.3-0.6,0.3h-0.1c-0.4,0-0.6-0.1-0.6-0.3v-5.3c0-0.7,0-1.1-0.1-1.4c-0.1-0.3-0.1-0.4-0.1-0.5c0-0.1,0.1-0.2,0.3-0.3
			c0.2-0.1,0.4-0.1,0.5-0.1c0.1,0,0.2,0.1,0.3,0.2c0.1,0.1,0.1,0.3,0.2,0.5c0,0.2,0.1,0.3,0.1,0.3c0.3-0.3,0.6-0.6,1-0.8
			c0.4-0.2,0.8-0.3,1.3-0.3s0.9,0.1,1.3,0.3c0.4,0.2,0.7,0.5,0.9,1c0.3-0.4,0.7-0.7,1.1-0.9s0.9-0.4,1.3-0.4
			C193.4,363.1,193.9,363.3,194.4,363.6z"/>
		<path class="st6" d="M201.6,370.2c-0.6-0.7-0.9-1.7-0.9-3c0-1.3,0.3-2.4,0.9-3.1c0.6-0.7,1.5-1,2.6-1c1,0,1.8,0.3,2.3,1
			c0.5,0.7,0.8,1.7,0.8,3c0,0.1-0.1,0.2-0.2,0.4c-0.1,0.2-0.2,0.2-0.3,0.2h-4.8c0.1,0.8,0.3,1.5,0.7,1.9c0.4,0.4,0.9,0.6,1.7,0.6
			c0.4,0,0.8-0.1,1.1-0.2c0.3-0.1,0.6-0.2,0.8-0.3c0.2-0.1,0.3-0.2,0.4-0.2c0.1,0,0.2,0.1,0.3,0.3c0.1,0.2,0.2,0.4,0.2,0.5
			c0,0.1-0.1,0.3-0.4,0.4s-0.6,0.3-1,0.4s-0.9,0.2-1.3,0.2C203.2,371.2,202.3,370.9,201.6,370.2z M206.1,366.6
			c0-1.6-0.6-2.4-1.8-2.4c-1.3,0-2,0.8-2.1,2.4H206.1z"/>
		<path class="st6" d="M208.4,371.1c-0.1,0-0.2-0.1-0.2-0.2c0-0.1,0-0.2,0.1-0.3l2.5-3.6l-2.3-3.4c-0.1-0.1-0.1-0.2-0.1-0.3
			c0-0.2,0.2-0.3,0.7-0.3h0.1c0.2,0,0.3,0,0.4,0c0.1,0,0.2,0.1,0.2,0.2l1.4,2.2c0.1,0.1,0.2,0.3,0.3,0.5c0.1-0.3,0.2-0.4,0.3-0.5
			l1.5-2.2c0.1-0.1,0.3-0.2,0.7-0.2h0.1c0.2,0,0.4,0,0.5,0.1c0.1,0,0.2,0.1,0.2,0.2c0,0.1,0,0.2-0.1,0.3l-2.3,3.3l2.5,3.6
			c0.1,0.1,0.1,0.2,0.1,0.3c0,0.2-0.2,0.3-0.7,0.3h-0.1c-0.2,0-0.3,0-0.4,0c-0.1,0-0.2-0.1-0.2-0.2l-1.6-2.4
			c-0.1-0.1-0.2-0.3-0.3-0.5c-0.1,0.2-0.2,0.4-0.3,0.5l-1.6,2.4c-0.1,0.1-0.3,0.2-0.7,0.2h0C208.7,371.2,208.5,371.2,208.4,371.1z"
			/>
		<path class="st6" d="M216.9,370.2c-0.6-0.7-0.9-1.7-0.9-3c0-1.3,0.3-2.4,0.9-3.1c0.6-0.7,1.5-1,2.6-1c1,0,1.8,0.3,2.3,1
			c0.5,0.7,0.8,1.7,0.8,3c0,0.1-0.1,0.2-0.2,0.4c-0.1,0.2-0.2,0.2-0.3,0.2h-4.8c0.1,0.8,0.3,1.5,0.7,1.9c0.4,0.4,0.9,0.6,1.7,0.6
			c0.4,0,0.8-0.1,1.1-0.2c0.3-0.1,0.6-0.2,0.8-0.3c0.2-0.1,0.3-0.2,0.4-0.2c0.1,0,0.2,0.1,0.3,0.3c0.1,0.2,0.2,0.4,0.2,0.5
			c0,0.1-0.1,0.3-0.4,0.4s-0.6,0.3-1,0.4s-0.9,0.2-1.3,0.2C218.5,371.2,217.5,370.9,216.9,370.2z M221.3,366.6
			c0-1.6-0.6-2.4-1.8-2.4c-1.3,0-2,0.8-2.1,2.4H221.3z"/>
		<path class="st6" d="M234.4,363.6c0.5,0.4,0.7,1,0.7,1.9v5.3c0,0.2-0.2,0.3-0.6,0.3h-0.1c-0.4,0-0.6-0.1-0.6-0.3v-5.2
			c0-0.5-0.1-0.8-0.4-1.1s-0.6-0.4-1.1-0.4c-0.6,0-1.3,0.4-1.9,1.1c0,0.1,0,0.2,0,0.3v5.3c0,0.2-0.2,0.3-0.6,0.3h-0.1
			c-0.4,0-0.6-0.1-0.6-0.3v-5.2c0-0.5-0.1-0.8-0.4-1.1s-0.6-0.4-1.1-0.4c-0.4,0-0.7,0.1-1,0.3c-0.3,0.2-0.6,0.5-0.8,0.7v5.6
			c0,0.2-0.2,0.3-0.6,0.3h-0.1c-0.4,0-0.6-0.1-0.6-0.3v-5.3c0-0.7,0-1.1-0.1-1.4c-0.1-0.3-0.1-0.4-0.1-0.5c0-0.1,0.1-0.2,0.3-0.3
			c0.2-0.1,0.4-0.1,0.5-0.1c0.1,0,0.2,0.1,0.3,0.2c0.1,0.1,0.1,0.3,0.2,0.5c0,0.2,0.1,0.3,0.1,0.3c0.3-0.3,0.6-0.6,1-0.8
			c0.4-0.2,0.8-0.3,1.3-0.3s0.9,0.1,1.3,0.3c0.4,0.2,0.7,0.5,0.9,1c0.3-0.4,0.7-0.7,1.1-0.9s0.9-0.4,1.3-0.4
			C233.4,363.1,233.9,363.3,234.4,363.6z"/>
		<path class="st6" d="M237.6,374v-8.5c0-0.7,0-1.1-0.1-1.4c-0.1-0.3-0.1-0.4-0.1-0.5c0-0.1,0.1-0.2,0.3-0.3
			c0.2-0.1,0.4-0.1,0.5-0.1c0.1,0,0.2,0.1,0.3,0.2c0.1,0.1,0.1,0.3,0.2,0.5c0,0.2,0.1,0.3,0.1,0.3c0.7-0.8,1.5-1.1,2.4-1.1
			c0.6,0,1.1,0.2,1.6,0.5s0.8,0.8,1,1.4c0.2,0.6,0.3,1.3,0.3,2.1c0,0.9-0.1,1.6-0.4,2.2c-0.3,0.6-0.6,1.1-1.1,1.4
			c-0.5,0.3-1,0.5-1.6,0.5c-0.4,0-0.8-0.1-1.2-0.2s-0.7-0.3-1-0.6v3.5c0,0.2-0.2,0.3-0.6,0.3h-0.1
			C237.8,374.3,237.6,374.2,237.6,374z M242.3,369.4c0.3-0.5,0.5-1.2,0.5-2.1c0-1-0.2-1.7-0.5-2.3c-0.3-0.5-0.8-0.8-1.4-0.8
			c-0.3,0-0.7,0.1-1.1,0.3c-0.4,0.2-0.7,0.4-1,0.8v4.2c0.5,0.5,1.2,0.7,1.9,0.7C241.4,370.1,241.9,369.9,242.3,369.4z"/>
		<path class="st6" d="M246.8,370.8c-0.4-0.3-0.6-0.9-0.6-1.6V360c0-0.2,0.2-0.3,0.6-0.3h0.1c0.4,0,0.6,0.1,0.6,0.3v9
			c0,0.4,0.1,0.7,0.2,0.9c0.1,0.2,0.3,0.2,0.6,0.2c0.2,0,0.3,0,0.4,0c0.1,0,0.2,0,0.2,0c0.1,0,0.2,0.1,0.2,0.3s0.1,0.3,0.1,0.4
			c0,0.3-0.4,0.5-1.1,0.5C247.7,371.2,247.2,371.1,246.8,370.8z"/>
		<path class="st6" d="M250.8,370.2c-0.6-0.7-0.9-1.7-0.9-3c0-1.3,0.3-2.3,0.9-3c0.6-0.7,1.5-1.1,2.6-1.1c1.1,0,2,0.4,2.6,1.1
			c0.6,0.7,0.9,1.7,0.9,3.1c0,1.3-0.3,2.3-0.9,3s-1.4,1-2.6,1C252.2,371.2,251.4,370.9,250.8,370.2z M255,369.4
			c0.4-0.5,0.5-1.2,0.5-2.2c0-1-0.2-1.8-0.5-2.3c-0.4-0.5-0.9-0.7-1.6-0.7c-0.7,0-1.3,0.2-1.6,0.7c-0.3,0.5-0.5,1.2-0.5,2.3
			c0,1,0.2,1.8,0.5,2.2c0.3,0.5,0.9,0.7,1.6,0.7C254.1,370.1,254.6,369.9,255,369.4z"/>
		<path class="st6" d="M259.8,370.7c-0.4-0.3-0.8-0.8-1-1.4c-0.2-0.6-0.4-1.3-0.4-2.1c0-0.9,0.1-1.6,0.4-2.2
			c0.3-0.6,0.6-1.1,1.1-1.4c0.5-0.3,1-0.5,1.6-0.5c0.4,0,0.8,0.1,1.2,0.2s0.7,0.3,1,0.6V360c0-0.2,0.2-0.3,0.6-0.3h0.1
			c0.4,0,0.6,0.1,0.6,0.3v8.9c0,0.7,0,1.1,0.1,1.4c0.1,0.3,0.1,0.4,0.1,0.5c0,0.1-0.1,0.2-0.3,0.3s-0.4,0.1-0.5,0.1
			c-0.1,0-0.2-0.1-0.3-0.2c-0.1-0.2-0.1-0.3-0.2-0.5c0-0.2-0.1-0.3-0.1-0.3c-0.7,0.8-1.5,1.1-2.4,1.1
			C260.8,371.2,260.3,371.1,259.8,370.7z M262.7,369.8c0.4-0.2,0.7-0.4,1-0.8v-4.2c-0.5-0.5-1.2-0.7-1.9-0.7c-0.7,0-1.2,0.2-1.5,0.7
			c-0.3,0.5-0.5,1.2-0.5,2.1c0,1,0.2,1.7,0.5,2.3c0.3,0.5,0.8,0.8,1.4,0.8C262,370.1,262.4,370,262.7,369.8z"/>
		<path class="st6" d="M268,370.2c-0.6-0.7-0.9-1.7-0.9-3c0-1.3,0.3-2.4,0.9-3.1c0.6-0.7,1.5-1,2.6-1c1,0,1.8,0.3,2.3,1
			c0.5,0.7,0.8,1.7,0.8,3c0,0.1-0.1,0.2-0.2,0.4c-0.1,0.2-0.2,0.2-0.3,0.2h-4.8c0.1,0.8,0.3,1.5,0.7,1.9s0.9,0.6,1.7,0.6
			c0.4,0,0.8-0.1,1.1-0.2s0.6-0.2,0.8-0.3c0.2-0.1,0.3-0.2,0.3-0.2c0.1,0,0.2,0.1,0.3,0.3s0.2,0.4,0.2,0.5c0,0.1-0.1,0.3-0.4,0.4
			c-0.3,0.2-0.6,0.3-1,0.4s-0.9,0.2-1.3,0.2C269.6,371.2,268.6,370.9,268,370.2z M272.4,366.6c0-1.6-0.6-2.4-1.8-2.4
			c-1.3,0-2,0.8-2.1,2.4H272.4z"/>
		<path class="st6" d="M279.5,370.8V360c0-0.2,0.2-0.3,0.6-0.3h0.1c0.4,0,0.6,0.1,0.6,0.3v4.1c0.3-0.3,0.7-0.6,1.1-0.8
			c0.4-0.2,0.8-0.3,1.3-0.3c0.6,0,1.2,0.2,1.7,0.5c0.5,0.4,0.7,1,0.7,1.9v5.3c0,0.2-0.2,0.3-0.6,0.3h-0.1c-0.4,0-0.6-0.1-0.6-0.3
			v-5.2c0-0.5-0.1-0.8-0.4-1.1s-0.6-0.4-1.2-0.4c-0.4,0-0.7,0.1-1.1,0.3c-0.3,0.2-0.6,0.5-0.9,0.8v5.6c0,0.2-0.2,0.3-0.6,0.3h-0.1
			C279.7,371.2,279.5,371.1,279.5,370.8z"/>
		<path class="st6" d="M288.5,370.2c-0.6-0.7-0.9-1.7-0.9-3c0-1.3,0.3-2.3,0.9-3c0.6-0.7,1.5-1.1,2.6-1.1c1.1,0,2,0.4,2.6,1.1
			c0.6,0.7,0.9,1.7,0.9,3.1c0,1.3-0.3,2.3-0.9,3s-1.4,1-2.6,1C289.9,371.2,289.1,370.9,288.5,370.2z M292.7,369.4
			c0.4-0.5,0.5-1.2,0.5-2.2c0-1-0.2-1.8-0.5-2.3c-0.4-0.5-0.9-0.7-1.6-0.7c-0.7,0-1.3,0.2-1.6,0.7c-0.3,0.5-0.5,1.2-0.5,2.3
			c0,1,0.2,1.8,0.5,2.2c0.3,0.5,0.9,0.7,1.6,0.7C291.8,370.1,292.3,369.9,292.7,369.4z"/>
		<path class="st6" d="M297.6,370.8c-0.4-0.3-0.6-0.9-0.6-1.6v-4.9h-0.8c-0.1,0-0.2,0-0.2-0.1c-0.1-0.1-0.1-0.2-0.1-0.4v-0.2
			c0-0.2,0-0.3,0.1-0.3s0.1-0.1,0.2-0.1h0.8l0.2-1.6c0-0.2,0.2-0.3,0.5-0.3h0.2c0.3,0,0.5,0.1,0.5,0.3v1.6h1.3c0.1,0,0.2,0,0.2,0.1
			s0.1,0.2,0.1,0.3v0.2c0,0.2,0,0.3-0.1,0.4c0,0.1-0.1,0.1-0.2,0.1h-1.3v4.7c0,0.4,0.1,0.7,0.2,0.9c0.1,0.2,0.3,0.2,0.6,0.2
			c0.2,0,0.3,0,0.4,0s0.2,0,0.2,0c0.1,0,0.2,0.1,0.2,0.3c0.1,0.2,0.1,0.3,0.1,0.4c0,0.3-0.4,0.5-1.1,0.5
			C298.5,371.2,298,371.1,297.6,370.8z"/>
		<path class="st6" d="M302.3,370.2c-0.6-0.7-0.9-1.7-0.9-3c0-1.3,0.3-2.4,0.9-3.1c0.6-0.7,1.5-1,2.6-1c1,0,1.8,0.3,2.3,1
			c0.5,0.7,0.8,1.7,0.8,3c0,0.1-0.1,0.2-0.2,0.4c-0.1,0.2-0.2,0.2-0.3,0.2h-4.8c0.1,0.8,0.3,1.5,0.7,1.9s0.9,0.6,1.7,0.6
			c0.4,0,0.8-0.1,1.1-0.2s0.6-0.2,0.8-0.3c0.2-0.1,0.3-0.2,0.3-0.2c0.1,0,0.2,0.1,0.3,0.3s0.2,0.4,0.2,0.5c0,0.1-0.1,0.3-0.4,0.4
			c-0.3,0.2-0.6,0.3-1,0.4s-0.9,0.2-1.3,0.2C303.9,371.2,302.9,370.9,302.3,370.2z M306.7,366.6c0-1.6-0.6-2.4-1.8-2.4
			c-1.3,0-2,0.8-2.1,2.4H306.7z"/>
		<path class="st6" d="M310.6,370.8c-0.4-0.3-0.6-0.9-0.6-1.6V360c0-0.2,0.2-0.3,0.6-0.3h0.1c0.4,0,0.6,0.1,0.6,0.3v9
			c0,0.4,0.1,0.7,0.2,0.9c0.1,0.2,0.3,0.2,0.6,0.2c0.2,0,0.3,0,0.4,0c0.1,0,0.2,0,0.2,0c0.1,0,0.2,0.1,0.2,0.3s0.1,0.3,0.1,0.4
			c0,0.3-0.4,0.5-1.1,0.5C311.5,371.2,311,371.1,310.6,370.8z"/>
	</g>
</g>
<g id="DESIGNED_BY_FREEPIK">
</g>
</svg>
