<?xml version="1.0" encoding="utf-8"?>
<!-- Generator: Adobe Illustrator 21.0.0, SVG Export Plug-In . SVG Version: 6.00 Build 0)  -->
<svg version="1.1" xmlns="http://www.w3.org/2000/svg" xmlns:xlink="http://www.w3.org/1999/xlink" x="0px" y="0px"
	 viewBox="0 0 1000 800" style="enable-background:new 0 0 1000 800;" xml:space="preserve">
<style type="text/css">
	.st0{display:none;}
	.st1{opacity:0.56;fill:url(#SVGID_1_);}
</style>
<g id="Layer_2" class="st0">
</g>
<g id="Layer_3">
	
		<linearGradient id="SVGID_1_" gradientUnits="userSpaceOnUse" x1="420.9829" y1="282.3488" x2="807.366" y2="282.3488" gradientTransform="matrix(1.1782 1.1351 -1.3271 1.3775 163.9902 -690.7731)">
		<stop  offset="0" style="stop-color:#FBED42"/>
		<stop  offset="2.971973e-02" style="stop-color:#FBE539"/>
		<stop  offset="0.11" style="stop-color:#FCD426"/>
		<stop  offset="0.1928" style="stop-color:#FCC91B"/>
		<stop  offset="0.2809" style="stop-color:#FCC617"/>
		<stop  offset="0.6685" style="stop-color:#F19042"/>
		<stop  offset="0.8876" style="stop-color:#ED693B"/>
		<stop  offset="1" style="stop-color:#E73F39"/>
	</linearGradient>
	<path class="st1" d="M651.7,402.9c-17.7,136.5,66.6,206,17.1,282.6c-20.3,31.4-57.9,58.8-80.1,49.8c-9.4-3.8-19.1-16.8-21.7-95.4
		c-3.7-110.9,13.7-151.4-2.4-161.9c-36.3-23.7-174,148.1-202.3,128.6c-24.1-16.6,79-138.5,38.2-247
		C365,265.3,246.8,248.8,256.1,210.5c9.2-37.9,128.4-36.5,184.5-35.8c64.3,0.8,78.5,11.1,81.8,20.6c7.6,21.7-37.9,49.6-31.8,60.9
		c11.5,21.4,177.6-72.9,213-33.7C726.6,248,665.4,297.6,651.7,402.9z"/>
</g>
</svg>
