<?xml version="1.0" encoding="utf-8"?>
<!-- Generator: Adobe Illustrator 21.0.0, SVG Export Plug-In . SVG Version: 6.00 Build 0)  -->
<svg version="1.1" xmlns="http://www.w3.org/2000/svg" xmlns:xlink="http://www.w3.org/1999/xlink" x="0px" y="0px"
	 viewBox="0 0 1000 800" style="enable-background:new 0 0 1000 800;" xml:space="preserve">
<style type="text/css">
	.st0{display:none;}
	.st1{opacity:0.56;fill:url(#SVGID_1_);}
</style>
<g id="Layer_2" class="st0">
</g>
<g id="Layer_3">
	
		<linearGradient id="SVGID_1_" gradientUnits="userSpaceOnUse" x1="432.1906" y1="305.6699" x2="818.1077" y2="305.6699" gradientTransform="matrix(1.1782 1.1351 -1.3271 1.3775 163.9902 -690.7731)">
		<stop  offset="0" style="stop-color:#FBED42"/>
		<stop  offset="2.971973e-02" style="stop-color:#FBE539"/>
		<stop  offset="0.11" style="stop-color:#FCD426"/>
		<stop  offset="0.1928" style="stop-color:#FCC91B"/>
		<stop  offset="0.2809" style="stop-color:#FCC617"/>
		<stop  offset="0.6685" style="stop-color:#F19042"/>
		<stop  offset="0.8876" style="stop-color:#ED693B"/>
		<stop  offset="1" style="stop-color:#E73F39"/>
	</linearGradient>
	<path class="st1" d="M437.1,376c1.9,94.2,248.7,265.9,216.2,349.7c-9.6,24.8-41.3,36-80.1,49.8c-113.7,40.5-267,7.3-313.2-105.5
		C212,553.4,303,410.3,320.1,384.6c46.8-70.2,81.9-73.7,102.8-134.9c32.2-94.5-29.5-150.9,9.1-199.1C460.9,14.6,528.5,5,561.9,28.5
		C619.7,69.4,592,222,523,274c-24.8,18.7-65.2,32-80.4,70.1C442.6,344.1,436.7,358.7,437.1,376z"/>
</g>
</svg>
