<?xml version="1.0" encoding="utf-8"?>
<!-- Generator: Adobe Illustrator 21.0.0, SVG Export Plug-In . SVG Version: 6.00 Build 0)  -->
<svg version="1.1" xmlns="http://www.w3.org/2000/svg" xmlns:xlink="http://www.w3.org/1999/xlink" x="0px" y="0px"
	 viewBox="0 0 1000 800" style="enable-background:new 0 0 1000 800;" xml:space="preserve">
<style type="text/css">
	.st0{display:none;}
	.st1{fill:url(#XMLID_6_);}
	.st2{fill:#424242;}
	.st3{fill:#58595B;}
</style>
<g id="Layer_2" class="st0">
</g>
<g id="Layer_3">
	<g id="XMLID_650_">
		<g id="XMLID_930_">
			<linearGradient id="XMLID_6_" gradientUnits="userSpaceOnUse" x1="500.192" y1="127.2943" x2="500.192" y2="517.2578">
				<stop  offset="0" style="stop-color:#28A8E0"/>
				<stop  offset="1" style="stop-color:#2A3B8F"/>
			</linearGradient>
			<path id="XMLID_1224_" class="st1" d="M320.3,258.1c19.6-12.8,41.8,1.1,62.2,32.8c21.9,34,39.6,69.7,57.3,48.2
				c13.5-16.4,32.6-52,50.9-64.6c5.9-4.1,13.7-4.1,19.6,0c18.3,12.7,37.3,48.2,50.9,64.6c17.7,21.5,35.4-14.2,57.3-48.2
				c20.3-31.6,42.6-45.6,62.2-32.8c21.9,14.3,20,58.4,20,58.4c0,0,12.9-43.5-12.8-66.2c-8.6-7.6-17.7-10.6-27-10.5
				c-27.6-61-89-103.4-160.2-103.4c-71.3,0-132.6,42.4-160.2,103.4c-9.4-0.2-18.7,2.8-27.4,10.5C287.1,273,300,316.5,300,316.5
				l0.4-1.2C300.2,308.2,300.6,271,320.3,258.1z"/>
			<path id="XMLID_1241_" class="st2" d="M661.6,281.9c-20.3,10.8-53.5,114.3-84.4,116.4c-29.5,2-47.3-41.2-62.2-64.3
				c-6.9-10.6-22.4-10.6-29.3,0c-14.9,23.1-32.7,66.3-62.2,64.3c-30.9-2.1-64.1-105.6-84.4-116.4c-4.4-2.3-8.1-3.1-11.4-2.7
				c-2.1,10.7-3.1,21.8-3.1,33.2c0,97.1,78.7,175.8,175.8,175.8s175.8-78.7,175.8-175.8c0-11.3-1.1-22.4-3.1-33.2
				C669.8,278.7,666,279.5,661.6,281.9z"/>
		</g>
		<g id="XMLID_555_">
			<g id="XMLID_573_">
				<g id="XMLID_622_">
					<g id="XMLID_623_">
						<g id="XMLID_624_">
							<path id="XMLID_648_" class="st3" d="M339,597c-4.4,0-7.4-3.2-7.4-7.6h3.5c0,2.3,1.4,4.4,3.9,4.4c2.4,0,3.9-1.7,3.9-4.1
								c0-2.6-1.9-3.2-3.9-3.9c-3.8-1.4-6.8-2.5-6.8-7.2c0-3.8,3.1-6.6,6.8-6.6c4,0,6.9,2.6,6.9,6.7h-3.5c0-2.1-1.3-3.5-3.4-3.5
								c-1.8,0-3.2,1.5-3.2,3.3c0,5.1,10.6,2.1,10.6,11.2C346.4,594.1,343.3,597,339,597z"/>
							<path id="XMLID_637_" class="st3" d="M387.3,596.6v-24.2h3.5v20.9h8.4v3.2H387.3z"/>
							<path id="XMLID_634_" class="st3" d="M452.8,597c-6.9,0-12.6-5.6-12.6-12.5c0-7,5.6-12.5,12.6-12.5c7,0,12.6,5.6,12.6,12.6
								C465.3,591.4,459.6,597,452.8,597z M452.8,575.2c-3.8,0-6.7,2-8.2,5.5c-0.5,1.2-0.9,2.5-0.9,3.9c0,1.3,0.3,2.7,0.9,3.9
								c1.5,3.4,4.5,5.4,8.2,5.4c4,0,7-2.3,8.4-6c0.4-1,0.6-2.1,0.6-3.2C461.8,579.5,458,575.2,452.8,575.2z"/>
							<path id="XMLID_631_" class="st3" d="M523.9,595.9c-1.6,0.8-3.5,1.2-5.3,1.2c-6.9,0-12.4-5.6-12.4-12.5
								c0-6.9,5.4-12.6,12.3-12.6c4.5,0,8.7,2.5,10.8,6.5h-4.1c-1.8-2-3.8-3.3-6.6-3.3c-5.1,0-8.9,4.4-8.9,9.4c0,4.9,4,9.2,9,9.2
								c3.9,0,7-2.4,8.3-6h-11.3v-3.2h15.3C531.1,589.5,528.5,593.8,523.9,595.9z"/>
							<path id="XMLID_627_" class="st3" d="M589.8,596.6l-2.7-7.1h-8.7l-2.7,7.1h-3.7l9.2-24.2h3.2l9.2,24.2H589.8z M582.9,577
								L582.9,577l-3.2,9.2h6.2L582.9,577z"/>
							<path id="XMLID_625_" class="st3" d="M650.1,596.6l-11.9-18.7h-0.1v18.7h-3.5v-24.2h3.9l11.8,18.4h0.1v-18.4h3.5v24.2H650.1z
								"/>
						</g>
					</g>
				</g>
				<g id="XMLID_574_">
					<path id="XMLID_620_" d="M257.1,505.9l0.3-0.2c5.6,0.2,8.8,0.3,9.7,0.3c0.8,0,4-0.1,9.7-0.3l0.3,0.2v1.7l-0.3,0.2
						c-1.6,0-2.8,0.1-3.6,0.2c-0.8,0.1-1.5,0.3-1.8,0.5c-0.4,0.2-0.6,0.8-0.8,1.7s-0.2,2.2-0.2,3.8l-0.1,7.8v14.9
						c0,3.7,0,6.4,0.1,7.8l0.2,5.9h6.9c5.5,0,8.9-0.1,10.3-0.2c1.4-0.1,2.7-0.5,3.9-1c0.2-0.6,0.6-1.9,1.1-3.9
						c0.5-2,0.7-3.2,0.7-3.5l0.3-0.3h1.7l0.2,0.3c-0.2,0.9-0.4,2.7-0.6,5.2c-0.2,2.6-0.3,4.7-0.3,6.3l-0.3,0.3
						c-4.3-0.1-9.9-0.2-16.9-0.2l-9.9-0.1c-2.3,0-4.6,0.1-6.9,0.3l-0.3-0.3v-1.1l0.3-0.3c1.4-0.7,2.2-1.2,2.3-1.3
						c0.1-0.2,0.3-1.6,0.4-4.4c0.1-2.8,0.2-6.1,0.2-9.9v-14.5l-0.1-6.6c0-2.6-0.1-4.2-0.2-5c-0.1-0.7-0.3-1.2-0.5-1.5
						c-0.2-0.2-0.6-0.5-1.2-0.6c-0.6-0.2-2.1-0.3-4.5-0.4l-0.3-0.2V505.9z"/>
					<path id="XMLID_611_" d="M299.7,530.1c0-3.4,0.5-6.5,1.5-9.5c1-2.9,2.6-5.6,5-8.1c2.3-2.5,5.1-4.4,8.4-5.8c3.3-1.4,7-2,11.2-2
						c7.7,0,13.8,2.1,18.4,6.3c4.6,4.2,6.8,9.9,6.8,17.1c0,5.1-1.1,9.7-3.3,13.7c-2.2,4.1-5.4,7.2-9.6,9.5c-4.2,2.3-8.8,3.4-14,3.4
						c-3.7,0-7.1-0.6-10.1-1.8c-3.1-1.2-5.7-3.1-7.9-5.5c-2.2-2.4-3.8-5.3-4.7-8.5C300.2,535.7,299.7,532.8,299.7,530.1z
						 M306.8,527.9c0,2.8,0.4,5.7,1.3,8.9c0.9,3.2,2.2,5.9,4,8.2c1.8,2.3,3.8,4,6.1,5.1c2.3,1.1,4.9,1.7,7.9,1.7
						c3.5,0,6.6-0.8,9.3-2.4c2.7-1.6,4.8-4.1,6.2-7.5c1.4-3.4,2.1-7.2,2.1-11.3c0-4.6-0.8-8.7-2.4-12.3c-1.6-3.7-3.9-6.3-6.9-8
						c-3-1.7-6.3-2.5-10-2.5c-5.5,0-9.8,1.7-13,5.1C308.4,516.2,306.8,521.2,306.8,527.9z"/>
					<path id="XMLID_608_" d="M354,505.9l0.3-0.2c4.1,0.2,7.3,0.3,9.6,0.3c2.5,0,6-0.1,10.3-0.2c1.6,0,2.8-0.1,3.5-0.1
						c5.7,0,9.6,1,11.6,3.1c2,2.1,3,4.5,3,7.4c0,1.9-0.5,3.8-1.5,5.6c-1,1.8-2.5,3.4-4.4,4.7c-1.9,1.3-4.6,2.3-8,2.9
						c0.6,0.9,1.8,2.4,3.4,4.6l4.8,6.4c1.6,2.1,3.2,4.3,5,6.6c1.8,2.3,2.9,3.7,3.4,4c0.5,0.3,1,0.5,1.3,0.6c0.4,0.1,1,0.1,1.8,0.1
						l0.3,0.3v1.6l-0.3,0.3c-1.1-0.1-2.4-0.2-3.9-0.2c-1.6,0-3.3,0.1-5.2,0.2c-1.6-1.9-4-5.2-7.3-9.8c-3.9-5.4-7.8-10.4-11.9-15.1
						l0.3-1c1.2,0.1,2.1,0.1,2.7,0.1c3.9,0,7-0.9,9.2-2.8c2.2-1.9,3.3-4.5,3.3-7.8c0-3-1-5.2-3-6.7c-2-1.5-4.7-2.3-8-2.3
						c-2.4,0-4.6,0.3-6.7,1c-0.3,0.5-0.5,4.7-0.5,12.7v15.7l0,6.6c0,2.5,0.1,4.2,0.2,4.9c0.1,0.7,0.3,1.2,0.5,1.5
						c0.2,0.2,0.6,0.5,1.2,0.6c0.6,0.2,2.1,0.3,4.5,0.4l0.3,0.2v1.7l-0.3,0.3c-0.1,0-2.1-0.1-6-0.2c-1.6,0-2.9-0.1-3.8-0.1
						c-0.7,0-3.9,0.1-9.7,0.3l-0.3-0.3v-1.7l0.3-0.2c2.1-0.1,3.5-0.2,4.2-0.3c0.7-0.1,1.2-0.3,1.4-0.5c0.2-0.2,0.4-0.7,0.6-1.4
						c0.1-0.7,0.2-2.3,0.3-4.7l0-7.1v-15.7l-0.1-6.6c0-2.6-0.1-4.2-0.2-5c-0.1-0.7-0.3-1.2-0.5-1.5c-0.2-0.2-0.6-0.5-1.2-0.6
						c-0.6-0.2-2.1-0.3-4.5-0.4l-0.3-0.2V505.9z"/>
					<path id="XMLID_598_" d="M401.3,505.9l0.3-0.2c7.7,0.1,12.7,0.2,14.8,0.2c7.4,0,14-0.1,19.8-0.2l0.2,0.2
						c-0.6,2.2-1,5.6-1.3,10.2l-0.2,0.3h-1.7l-0.3-0.3c0-0.2,0-0.4,0-0.5c0-1.9-0.1-3.7-0.4-5.5c-1.4-0.6-3.4-1-5.9-1.2
						c-2.5-0.2-4.4-0.3-5.7-0.3c-1.8,0-4.1,0.1-6.8,0.4l-0.1,5.4l-0.1,6.2l-0.1,6.9c2.4,0.1,4.7,0.2,6.7,0.2c2.1,0,3.8-0.1,5.2-0.2
						c1.4-0.1,2.2-0.3,2.5-0.4c0.2-0.1,0.4-0.4,0.5-0.8c0.1-0.4,0.2-1.2,0.3-2.2l0.1-2.1l0.3-0.3h1.6l0.3,0.3c0,2.5-0.1,4.9-0.2,7.4
						l0.2,7.6l-0.3,0.3h-1.6l-0.3-0.3l-0.2-2c-0.2-1.6-0.3-2.5-0.4-2.8c-0.1-0.3-0.3-0.6-0.6-0.8c-0.3-0.2-1.2-0.4-2.5-0.5
						c-1.4-0.1-3.2-0.2-5.6-0.2c-1.3,0-3.3,0.1-6,0.2c-0.1,1.9-0.2,5.1-0.2,9.5c0,4.7,0.1,8.2,0.2,10.5h6.2c5.5,0,8.9-0.1,10.3-0.2
						c1.4-0.1,2.7-0.5,3.9-1c0.2-0.5,0.5-1.7,1-3.6c0.5-1.9,0.7-3.1,0.8-3.5l0.3-0.2h1.6l0.3,0.2c-0.2,1-0.4,2.7-0.6,5.1
						c-0.2,2.4-0.3,4.5-0.3,6.2l-0.2,0.3c-4.3-0.1-9.9-0.2-16.9-0.2l-9.2-0.1c-2.1,0-4.4,0.1-6.7,0.3l-0.3-0.3v-1.1l0.3-0.3
						c1.3-0.7,2.1-1.1,2.3-1.3c0.2-0.2,0.3-2.1,0.5-5.9c0.1-3.8,0.2-6.7,0.2-8.6v-12.4l0-7.7c0-1.7,0-3-0.1-4.1c0-1-0.1-1.8-0.2-2.2
						c-0.1-0.5-0.2-0.8-0.4-0.9c-0.1-0.2-0.4-0.3-0.7-0.5c-0.3-0.1-0.9-0.2-1.7-0.3l-2.6-0.2l-0.3-0.2V505.9z"/>
					<path id="XMLID_594_" d="M504.8,505.8l0.3,0.3v1.7l-0.3,0.2c-2.5,0.1-4,0.2-4.6,0.4c-0.6,0.2-1,0.5-1.3,0.9
						c-0.2,0.4-0.4,1.2-0.4,2.5c0,1.2-0.1,4.7-0.2,10.3v15.6c0,2.3,0,4.8,0.1,7.6c0.1,2.8,0.2,4.5,0.4,5c0.2,0.5,0.6,0.8,1.2,1
						c0.6,0.2,2.2,0.4,4.8,0.4l0.3,0.2v1.7l-0.3,0.3c-3.7-0.2-6.9-0.3-9.6-0.3c-1.8,0-5,0.1-9.4,0.3l-0.3-0.3v-1.6l0.3-0.3
						c2.5-0.1,4-0.2,4.6-0.4c0.6-0.2,1-0.5,1.3-0.9c0.2-0.4,0.4-1.2,0.4-2.5c0-1.2,0.1-4.7,0.2-10.3v-24.8l-11.7,24.4
						c-2.9,6.1-5.5,11.9-7.7,17.2h-1.3c-1.3-2.9-2.3-5.2-3.1-7l-16.2-33.6v23.6c0,2.2,0,4.8,0.1,7.6c0.1,2.9,0.2,4.5,0.4,5
						c0.2,0.5,0.6,0.8,1.2,1c0.6,0.2,2.2,0.4,4.8,0.4l0.3,0.3v1.6l-0.3,0.3l-2.2-0.1c-2.2-0.1-4.1-0.2-5.7-0.2
						c-0.7,0-3.4,0.1-8.1,0.3l-0.3-0.3v-1.6l0.3-0.3c2.5,0,4-0.2,4.6-0.3c0.6-0.2,1-0.5,1.3-0.9c0.3-0.4,0.4-1.2,0.4-2.4
						c0-1.2,0.1-4.6,0.2-10.4V522c0-2.1,0-4.5-0.1-7.5c-0.1-2.9-0.2-4.6-0.4-5.1c-0.2-0.5-0.6-0.8-1.2-1c-0.6-0.2-2.2-0.4-4.8-0.4
						l-0.3-0.3v-1.6l0.3-0.3c1.6,0.1,3.7,0.2,6.3,0.2c2.5,0,4.6-0.1,6.5-0.2c1.9,4.4,3.7,8.3,5.4,11.9l12.8,26.3l11.6-24.1
						c3.1-6.5,5.2-11.2,6.3-14.1c2.2,0.1,4.3,0.2,6.4,0.2C500,505.9,502.2,505.9,504.8,505.8z"/>
					<path id="XMLID_592_" d="M526,505.7l4.2,0.1c2.8,0.1,4.6,0.1,5.4,0.1c0.8,0,4-0.1,9.7-0.3l0.3,0.2v1.7l-0.3,0.2
						c-1.6,0-2.8,0.1-3.6,0.2c-0.8,0.1-1.5,0.3-1.8,0.5c-0.4,0.2-0.6,0.8-0.8,1.7s-0.2,2.2-0.2,3.8l-0.1,7.8v15.7l0,6.6
						c0,2.5,0.1,4.2,0.2,4.9c0.1,0.7,0.3,1.2,0.5,1.5c0.2,0.2,0.6,0.5,1.2,0.6c0.6,0.2,2.1,0.3,4.5,0.4l0.3,0.2v1.7l-0.3,0.3
						c-0.1,0-2.1-0.1-6-0.2c-1.6,0-2.9-0.1-3.8-0.1c-0.7,0-3.9,0.1-9.7,0.3l-0.3-0.3v-1.7l0.3-0.2c2.1-0.1,3.5-0.2,4.2-0.3
						c0.7-0.1,1.2-0.3,1.4-0.5c0.2-0.2,0.4-0.7,0.6-1.4c0.1-0.7,0.2-2.3,0.3-4.7l0-7.1v-15.7l-0.1-6.6c0-2.6-0.1-4.2-0.2-5
						c-0.1-0.7-0.3-1.2-0.5-1.5c-0.2-0.2-0.6-0.5-1.2-0.6c-0.6-0.2-2.1-0.3-4.5-0.4l-0.3-0.2v-1.7L526,505.7z"/>
					<path id="XMLID_581_" d="M549.3,505.7c5.7,0.2,9.3,0.3,10.9,0.3c2.1,0,4.5-0.1,7.1-0.2c2.8-0.1,4.5-0.1,5.2-0.1
						c3.2,0,5.8,0.3,7.8,1c2.1,0.7,3.8,1.8,5.1,3.6c1.4,1.7,2,3.8,2,6.3c0,2-0.5,4-1.4,5.9c-0.9,1.9-2.3,3.5-4,4.8
						c-1.7,1.3-3.4,2.3-5.1,2.9c-1.7,0.6-3.5,0.9-5.4,0.9c-1.4,0-3-0.2-4.7-0.5l-0.6-2.1l0.3-0.3c1.7,0.4,3.1,0.6,4.1,0.6
						c3,0,5.3-1,7.1-2.9c1.8-2,2.7-4.4,2.7-7.5c0-3.1-0.9-5.5-2.8-7.3c-1.9-1.8-4.7-2.7-8.4-2.7c-2.1,0-4.3,0.4-6.8,1.1
						c-0.2,1.7-0.3,5.9-0.3,12.6v15.7l0,6.6c0,2.5,0.1,4.2,0.2,4.9c0.1,0.7,0.3,1.2,0.5,1.5c0.2,0.2,0.6,0.5,1.2,0.6
						c0.6,0.2,2.1,0.3,4.5,0.4l0.3,0.2v1.7l-0.3,0.3c-5.7-0.2-9-0.3-9.7-0.3c-0.8,0-4,0.1-9.7,0.3l-0.3-0.3v-1.7l0.3-0.2
						c2.1-0.1,3.5-0.2,4.2-0.3c0.7-0.1,1.2-0.3,1.4-0.5c0.2-0.2,0.4-0.7,0.6-1.4c0.1-0.7,0.2-2.3,0.3-4.7l0-7.1v-15.7l-0.1-6.6
						c0-2.6-0.1-4.2-0.2-5c-0.1-0.7-0.3-1.2-0.5-1.5c-0.2-0.2-0.6-0.5-1.2-0.6c-0.6-0.2-2.1-0.3-4.5-0.4l-0.3-0.2v-1.7L549.3,505.7z
						"/>
					<path id="XMLID_579_" d="M591.8,541.8l0.3-0.3h1.7l0.3,0.3c0.1,2.9,0.3,4.7,0.5,5.3c0.2,0.6,0.8,1.3,1.8,2
						c1,0.7,2.4,1.3,4.1,1.7c1.7,0.5,3.4,0.7,5.2,0.7c2.4,0,4.5-0.4,6.4-1.3c1.9-0.9,3.4-2.2,4.4-3.9c1.1-1.7,1.6-3.6,1.6-5.7
						c0-1.5-0.3-2.8-0.8-3.9c-0.5-1.1-1.2-2-2.1-2.7c-0.9-0.7-2-1.2-3.1-1.5c-1.2-0.3-2.9-0.7-5.2-1.1c-2.3-0.4-4-0.7-5.3-1
						c-1.3-0.3-2.5-0.7-3.8-1.4c-1.3-0.6-2.3-1.4-3.2-2.3c-0.8-0.9-1.5-2.1-2-3.4c-0.5-1.4-0.8-2.8-0.8-4.4c0-4.2,1.5-7.7,4.4-10.4
						c2.9-2.7,6.9-4,11.8-4c2,0,4.1,0.2,6.4,0.7c2.3,0.5,4.4,1.2,6.3,2.1l0.2,0.4c-0.5,2.1-0.8,5-0.9,8.9l-0.3,0.3h-1.8l-0.3-0.2
						c0-2.7-0.1-4.4-0.2-5.1c-0.1-0.7-1.1-1.6-3.1-2.6c-2-1-4.1-1.6-6.4-1.6c-1.9,0-3.7,0.4-5.4,1.1c-1.7,0.8-2.9,2-3.8,3.6
						c-0.9,1.6-1.3,3.3-1.3,5c0,1.3,0.3,2.5,0.8,3.5c0.5,1,1.2,1.8,2,2.4c0.8,0.6,1.8,1,2.9,1.3c1.1,0.3,3.1,0.7,6,1.1
						c4,0.6,6.9,1.2,8.7,2c1.8,0.8,3.3,2.1,4.4,3.8c1.1,1.7,1.6,3.8,1.6,6.3c0,4.8-2,8.8-5.9,12c-3.9,3.2-8.7,4.8-14.2,4.8
						c-4.7,0-8.8-0.8-12.3-2.5l-0.2-0.4C591.5,550.3,591.7,547,591.8,541.8z"/>
					<path id="XMLID_577_" d="M626.5,505.9l0.3-0.2c5.6,0.2,8.8,0.3,9.7,0.3c0.8,0,4-0.1,9.7-0.3l0.3,0.2v1.7l-0.3,0.2
						c-1.6,0-2.8,0.1-3.6,0.2c-0.8,0.1-1.5,0.3-1.8,0.5c-0.4,0.2-0.6,0.8-0.8,1.7s-0.2,2.2-0.2,3.8l-0.1,7.8v10.8
						c0,3.5,0.1,6.1,0.2,7.8c0.1,1.7,0.5,3.1,0.9,4.2c0.5,1.1,1.2,2.1,2.2,2.9c1,0.8,2.4,1.5,4.3,2c1.8,0.5,3.9,0.8,6.3,0.8
						c2.5,0,4.8-0.3,6.9-1c2.2-0.7,3.8-1.7,4.9-3c1.1-1.3,1.9-3,2.2-5.2c0.3-2.1,0.5-5.1,0.5-8.9v-10.4c0-1.8,0-4.2-0.1-7.3
						c-0.1-3.1-0.2-4.8-0.4-5.3c-0.2-0.5-0.6-0.8-1.2-1c-0.6-0.2-2.2-0.4-4.8-0.4l-0.3-0.3V506l0.3-0.3c3.3,0.2,6,0.3,8,0.3
						c1.7,0,4.4-0.1,8-0.3l0.3,0.3v1.6l-0.3,0.3c-2.1,0-3.5,0.1-4.1,0.3c-0.6,0.1-1.1,0.3-1.4,0.6c-0.3,0.2-0.5,0.6-0.6,1.1
						c-0.1,0.5-0.2,2-0.3,4.5l-0.1,7.6v10.3c0,4.1-0.2,7.3-0.5,9.7c-0.3,2.4-1,4.3-2.1,5.8c-1.1,1.5-2.4,2.8-3.9,3.8
						c-1.5,1-3.4,1.8-5.8,2.4c-2.3,0.6-4.8,0.8-7.3,0.8c-3.2,0-5.9-0.3-8.4-1c-2.4-0.7-4.3-1.6-5.7-2.8c-1.4-1.1-2.4-2.4-3-3.6
						c-0.6-1.3-1-2.8-1.2-4.5c-0.2-1.7-0.3-4.4-0.3-7.9v-13l-0.1-6.6c0-2.6-0.1-4.2-0.2-5c-0.1-0.7-0.3-1.2-0.5-1.5
						c-0.2-0.2-0.6-0.5-1.2-0.6c-0.6-0.2-2.1-0.3-4.5-0.4l-0.3-0.2V505.9z"/>
					<path id="XMLID_575_" d="M743,505.8l0.3,0.3v1.7l-0.3,0.2c-2.5,0.1-4,0.2-4.6,0.4c-0.6,0.2-1,0.5-1.3,0.9
						c-0.2,0.4-0.4,1.2-0.4,2.5c0,1.2-0.1,4.7-0.2,10.3v15.6c0,2.3,0,4.8,0.1,7.6c0.1,2.8,0.2,4.5,0.4,5c0.2,0.5,0.6,0.8,1.2,1
						c0.6,0.2,2.2,0.4,4.8,0.4l0.3,0.2v1.7l-0.3,0.3c-3.7-0.2-6.9-0.3-9.6-0.3c-1.8,0-5,0.1-9.4,0.3l-0.3-0.3v-1.6l0.3-0.3
						c2.5-0.1,4-0.2,4.6-0.4c0.6-0.2,1-0.5,1.3-0.9c0.2-0.4,0.4-1.2,0.4-2.5c0-1.2,0.1-4.7,0.2-10.3v-24.8l-11.7,24.4
						c-2.9,6.1-5.5,11.9-7.7,17.2h-1.3c-1.3-2.9-2.3-5.2-3.1-7l-16.2-33.6v23.6c0,2.2,0,4.8,0.1,7.6c0.1,2.9,0.2,4.5,0.4,5
						c0.2,0.5,0.6,0.8,1.2,1c0.6,0.2,2.2,0.4,4.8,0.4l0.3,0.3v1.6l-0.3,0.3l-2.2-0.1c-2.2-0.1-4.1-0.2-5.7-0.2
						c-0.7,0-3.4,0.1-8.1,0.3l-0.3-0.3v-1.6l0.3-0.3c2.5,0,4-0.2,4.6-0.3c0.6-0.2,1-0.5,1.3-0.9c0.3-0.4,0.4-1.2,0.4-2.4
						c0-1.2,0.1-4.6,0.2-10.4V522c0-2.1,0-4.5-0.1-7.5c-0.1-2.9-0.2-4.6-0.4-5.1c-0.2-0.5-0.6-0.8-1.2-1c-0.6-0.2-2.2-0.4-4.8-0.4
						l-0.3-0.3v-1.6l0.3-0.3c1.6,0.1,3.7,0.2,6.3,0.2c2.5,0,4.6-0.1,6.5-0.2c1.9,4.4,3.7,8.3,5.4,11.9l12.8,26.3l11.6-24.1
						c3.1-6.5,5.2-11.2,6.3-14.1c2.2,0.1,4.3,0.2,6.4,0.2C738.2,505.9,740.4,505.9,743,505.8z"/>
				</g>
			</g>
		</g>
	</g>
</g>
</svg>
